<svg xmlns="http://www.w3.org/2000/svg" width="1358" height="173" viewBox="0 0 1358 173"><defs><style>.a{fill:#c8daf9;}.b{fill:#fff;stroke-width:5px;}.b,.d,.f,.g,.h{stroke:#2785fc;}.c,.f,.g,.h{fill:#2785fc;}.d,.j{fill:none;}.d{stroke-width:4px;}.e{mix-blend-mode:multiply;isolation:isolate;}.g{stroke-width:2px;}.h{stroke-width:0.5px;}.i{stroke:none;}</style></defs><g transform="translate(-274 -1193)"><rect class="a" width="1316" height="13" transform="translate(295 1276)"/><g transform="translate(1311.838 1193)"><g class="b" transform="translate(0.162)"><ellipse class="i" cx="82.5" cy="83" rx="82.5" ry="83"/><ellipse class="j" cx="82.5" cy="83" rx="80" ry="80.5"/></g><path class="c" d="M15.224,13.8H45.971v6.149H52.12V7.649a6.141,6.141,0,0,0-6.149-6.119L15.224,1.5A6.167,6.167,0,0,0,9.075,7.649v12.3h6.149ZM41.082,49.435,55.2,35.322,41.082,21.209l-4.335,4.366,9.747,9.747-9.747,9.747,4.335,4.366ZM24.448,45.068,14.7,35.322l9.747-9.747-4.335-4.366L6,35.322,20.113,49.435ZM45.971,56.845H15.224V50.7H9.075v12.3a6.167,6.167,0,0,0,6.149,6.149H45.971a6.167,6.167,0,0,0,6.149-6.149V50.7H45.971Z" transform="translate(52.585 47.746)"/></g><g transform="translate(732.946 1199)"><g class="b" transform="translate(0.054)"><circle class="i" cx="83" cy="83" r="83"/><circle class="j" cx="83" cy="83" r="80.5"/></g><path class="d" d="M61.076,3H9.453A6.444,6.444,0,0,0,3.032,9.453L3,67.529,15.906,54.623h45.17a6.472,6.472,0,0,0,6.453-6.453V9.453A6.472,6.472,0,0,0,61.076,3ZM15.906,41.717V33.748l22.2-22.2a1.6,1.6,0,0,1,2.291,0l5.711,5.711a1.6,1.6,0,0,1,0,2.291L23.875,41.717Zm38.717,0h-24.2l6.453-6.453H54.623Z" transform="translate(47.519 47.519)"/></g><g transform="translate(443 1199)"><g class="b"><circle class="i" cx="83" cy="83" r="83"/><circle class="j" cx="83" cy="83" r="80.5"/></g></g><g transform="translate(1022.892 1200)"><g class="b" transform="translate(0.108)"><ellipse class="i" cx="82.5" cy="83" rx="82.5" ry="83"/><ellipse class="j" cx="82.5" cy="83" rx="80" ry="80.5"/></g><g transform="translate(46.699 46.698)"><path class="c" d="M69.87,34.021H38.1V31.771a6.333,6.333,0,0,0-6.326-6.326H6.326a2.109,2.109,0,1,1,0-4.217H39.7A24.166,24.166,0,0,0,54.1,16.443l3.223,9.669a2.109,2.109,0,0,0,1.892,1.439l.109,0a2.109,2.109,0,0,0,1.921-1.241L71.791,2.976A2.109,2.109,0,0,0,69.512.03l-25.3,4.358a2.109,2.109,0,0,0-.727,3.886L51.528,13.1A19.915,19.915,0,0,1,39.7,17.01H6.326a6.326,6.326,0,1,0,0,12.652H31.772a2.111,2.111,0,0,1,2.109,2.109v2.249H2.109A2.109,2.109,0,0,0,0,36.129v33.74a2.109,2.109,0,0,0,2.109,2.109H69.87a2.109,2.109,0,0,0,2.109-2.109V36.129A2.109,2.109,0,0,0,69.87,34.021ZM66.312,4.861l-6.69,14.806-2.514-7.541a2.143,2.143,0,0,0-.916-1.141L50.52,7.58Zm1.449,62.9H4.218V38.238H67.761Z" transform="translate(0 0.001)"/><path class="c" d="M62.109,306.217h8.576a2.109,2.109,0,1,0,0-4.217H62.109a2.109,2.109,0,1,0,0,4.217Z" transform="translate(-51.565 -259.544)"/><path class="c" d="M183.109,306.217h4.217a2.109,2.109,0,1,0,0-4.217h-4.217a2.109,2.109,0,1,0,0,4.217Z" transform="translate(-155.555 -259.544)"/><path class="c" d="M273.109,306.217h4.217a2.109,2.109,0,1,0,0-4.217h-4.217a2.109,2.109,0,1,0,0,4.217Z" transform="translate(-232.902 -259.544)"/><path class="c" d="M363.109,306.217h8.576a2.109,2.109,0,1,0,0-4.217h-8.576a2.109,2.109,0,1,0,0,4.217Z" transform="translate(-310.25 -259.544)"/><path class="c" d="M333.109,366.218H345.9a2.109,2.109,0,1,0,0-4.217H333.109a2.109,2.109,0,1,0,0,4.217Z" transform="translate(-284.467 -311.109)"/><path class="c" d="M243.109,366.218h4.217a2.109,2.109,0,1,0,0-4.217h-4.217a2.109,2.109,0,1,0,0,4.217Z" transform="translate(-207.119 -311.109)"/><path class="c" d="M159.435,364.109A2.109,2.109,0,0,0,157.326,362h-4.217a2.109,2.109,0,1,0,0,4.217h4.217A2.109,2.109,0,0,0,159.435,364.109Z" transform="translate(-129.772 -311.109)"/><path class="c" d="M62.109,366.218h4.358a2.109,2.109,0,1,0,0-4.217H62.109a2.109,2.109,0,1,0,0,4.217Z" transform="translate(-51.565 -311.109)"/><path class="c" d="M397.467,422h-4.358a2.109,2.109,0,0,0,0,4.218h4.358a2.109,2.109,0,0,0,0-4.218Z" transform="translate(-336.032 -362.674)"/><path class="c" d="M204.2,422H183.109a2.109,2.109,0,0,0,0,4.218H204.2a2.109,2.109,0,0,0,0-4.218Z" transform="translate(-155.555 -362.674)"/><path class="c" d="M70.684,422H62.109a2.109,2.109,0,0,0,0,4.218h8.576a2.109,2.109,0,0,0,0-4.218Z" transform="translate(-51.565 -362.674)"/></g></g><circle class="a" cx="21.5" cy="21.5" r="21.5" transform="translate(274 1261)"/><circle class="a" cx="21.5" cy="21.5" r="21.5" transform="translate(1589 1261)"/><g transform="translate(483 1225.297)"><g class="e" transform="translate(0 6.703)"><g transform="translate(18.121 17.524)"><path class="f" d="M363.7,544.376H345.831a3.251,3.251,0,0,1,0-6.5H363.7a3.251,3.251,0,1,1,0,6.5Zm-17.874-5.014a1.763,1.763,0,0,0,0,3.525H363.7a1.763,1.763,0,1,0,0-3.525Z" transform="translate(-329.88 -475.37)"/><path class="f" d="M359.665,586.514a5.375,5.375,0,0,1-5.227-4.042,6.589,6.589,0,0,1-5.645-6.5v-.744h21.733v.744a6.588,6.588,0,0,1-5.633,6.5A5.373,5.373,0,0,1,359.665,586.514Zm-9.329-9.8a5.109,5.109,0,0,0,4.764,4.329l.6.035.09.6a3.914,3.914,0,0,0,7.746,0l.09-.6.6-.036a5.106,5.106,0,0,0,4.752-4.329Z" transform="translate(-334.771 -503.78)"/><path class="g" d="M319.494,308.661H295.863V300.1a103.853,103.853,0,0,0-7.68-11.208,24.573,24.573,0,0,1-5.327-15.353,24.89,24.89,0,1,1,49.78,0,24.567,24.567,0,0,1-5.329,15.356,117.88,117.88,0,0,0-7.812,11.42Zm-22.143-1.489h20.654V299.9l.106-.177a119.554,119.554,0,0,1,8.025-11.752,23.093,23.093,0,0,0,5.01-14.435,23.4,23.4,0,1,0-46.8,0,23.1,23.1,0,0,0,5.007,14.431,105.353,105.353,0,0,1,7.9,11.548l.1.175Z" transform="translate(-282.856 -248.649)"/></g><rect class="h" width="1.701" height="26.411" transform="matrix(0.977, -0.214, 0.214, 0.977, 33.376, 50.618)"/><rect class="h" width="26.955" height="1.488" transform="translate(45.354 76.636) rotate(-77.903)"/><rect class="f" width="8.364" height="1.489" transform="translate(38.96 94.822)"/><path class="h" d="M370.972,408.125l-1.489-5.707-4.046,2.707-.591-.884,5.288-3.539,1.063,4.075,2.73-6.643,2.251,6.421,3.984-1.822.442.967-5.044,2.306-1.712-4.883Z" transform="translate(-329.29 -348.823)"/><path class="h" d="M401.916,178.577a.638.638,0,0,1-.638-.638V166.881a.638.638,0,1,1,1.276,0v11.058A.638.638,0,0,1,401.916,178.577Z" transform="translate(-357.974 -166.243)"/><path class="h" d="M481.6,203.973a.638.638,0,0,1-.545-.969l5.731-9.457a.638.638,0,1,1,1.091.661l-5.731,9.457A.638.638,0,0,1,481.6,203.973Z" transform="translate(-420.716 -187.499)"/><path class="h" d="M531.11,282.811a.638.638,0,0,1-.3-1.2l9.8-5.117a.638.638,0,0,1,.591,1.131l-9.8,5.117A.637.637,0,0,1,531.11,282.811Z" transform="translate(-459.695 -252.989)"/><path class="h" d="M557.134,373.249h-.041l-11.035-.7a.638.638,0,1,1,.081-1.273l11.035.7a.638.638,0,0,1-.04,1.275Z" transform="translate(-471.496 -327.67)"/><path class="h" d="M531.3,457.172a.635.635,0,0,1-.364-.115l-9.072-6.323a.638.638,0,1,1,.729-1.047l9.072,6.323a.638.638,0,0,1-.365,1.161Z" transform="translate(-452.701 -389.323)"/><path class="h" d="M293.446,203.973a.638.638,0,0,1-.546-.307l-5.731-9.457a.638.638,0,0,1,1.091-.661L293.991,203a.638.638,0,0,1-.545.969Z" transform="translate(-268.057 -187.499)"/><path class="h" d="M228.863,282.811a.636.636,0,0,1-.295-.073l-9.8-5.117a.638.638,0,1,1,.591-1.131l9.8,5.117a.638.638,0,0,1-.3,1.2Z" transform="translate(-214.003 -252.99)"/><path class="h" d="M198.276,373.249a.638.638,0,0,1-.04-1.275l11.035-.7a.638.638,0,0,1,.081,1.273l-11.035.7Z" transform="translate(-197.639 -327.67)"/><path class="h" d="M231.38,457.171a.638.638,0,0,1-.365-1.161l9.072-6.323a.638.638,0,0,1,.729,1.047l-9.072,6.323A.635.635,0,0,1,231.38,457.171Z" transform="translate(-223.702 -389.323)"/></g></g></g></svg>