<svg xmlns="http://www.w3.org/2000/svg" width="492.416" height="458.797" viewBox="0 0 492.416 458.797"><defs><style>.a{mix-blend-mode:multiply;isolation:isolate;}.b{fill:#2785fc;}.c,.d{opacity:0.3;}.d,.e,.g{fill:none;stroke:#2785fc;stroke-width:3px;}.f,.g{opacity:0.6;}</style></defs><g transform="translate(-1245.05 -0.5)"><g transform="translate(139 7)"><g class="a" transform="translate(1270 194)"><g transform="translate(47.637 0)"><path class="b" d="M398.112,537.874H351.125a8.546,8.546,0,0,0,0,17.093h46.986a8.546,8.546,0,1,0,0-17.093Zm-46.986,13.18a4.633,4.633,0,0,1,0-9.267h46.986a4.633,4.633,0,1,1,0,9.267Z" transform="translate(-309.194 -504.415)"/><path class="b" d="M377.374,575.227a14.13,14.13,0,0,0-13.742,10.625,17.32,17.32,0,0,0-14.84,17.09V604.9h57.132v-1.957a17.318,17.318,0,0,0-14.807-17.088A14.125,14.125,0,0,0,377.374,575.227ZM352.85,600.985a13.43,13.43,0,0,1,12.522-11.38l1.585-.092.237-1.57a10.289,10.289,0,0,1,20.362,0l.237,1.569,1.583.093a13.423,13.423,0,0,1,12.492,11.38Z" transform="translate(-311.934 -575.227)"/><path class="b" d="M379.17,248.649H317.048v22.506a273.033,273.033,0,0,1-20.19,29.463,64.6,64.6,0,0,0-14,40.359,65.43,65.43,0,1,0,130.86,0,64.581,64.581,0,0,0-14.01-40.369,309.846,309.846,0,0,1-20.536-30.02Zm-58.209,3.913h54.3v19.11l.279.465a314.287,314.287,0,0,0,21.1,30.894,60.707,60.707,0,0,1,13.17,37.946,61.517,61.517,0,1,1-123.034,0,60.719,60.719,0,0,1,13.163-37.937,276.977,276.977,0,0,0,20.759-30.357l.271-.46Z" transform="translate(-282.856 -194.177)"/></g><rect class="b" width="4.472" height="69.429" transform="matrix(0.977, 0.214, -0.214, 0.977, 102.593, 57.413)"/><rect class="b" width="70.859" height="3.913" transform="translate(123.052 56.018) rotate(77.903)"/><rect class="b" width="21.987" height="3.913" transform="translate(102.418 10.377)"/><path class="b" d="M380.949,398.135l-3.914,15L366.4,406.02l-1.554,2.323,13.9,9.3,2.794-10.713L388.72,424.4l5.916-16.879,10.474,4.789,1.162-2.542-13.26-6.063-4.5,12.837Z" transform="translate(-271.376 -295.728)"/><path class="b" d="M402.955,166.243a1.677,1.677,0,0,0-1.677,1.677v29.068a1.677,1.677,0,1,0,3.354,0V167.92A1.677,1.677,0,0,0,402.955,166.243Z" transform="translate(-287.442 59.631)"/><path class="b" d="M482.64,193.24a1.678,1.678,0,0,0-1.432,2.547l15.066,24.859a1.677,1.677,0,0,0,2.868-1.738l-15.066-24.86A1.677,1.677,0,0,0,482.64,193.24Z" transform="translate(-322.583 21.75)"/><path class="b" d="M532.15,276.418a1.678,1.678,0,0,0-.778,3.165l25.769,13.451a1.677,1.677,0,0,0,1.553-2.973l-25.769-13.451A1.674,1.674,0,0,0,532.15,276.418Z" transform="translate(-344.415 -96.515)"/><path class="b" d="M576.148,371.269c-.036,0-.072,0-.108,0l-29.009,1.853a1.677,1.677,0,1,0,.214,3.347l29.009-1.853a1.677,1.677,0,0,0-.105-3.351Z" transform="translate(-351.025 -232.789)"/><path class="b" d="M547.113,449.573a1.669,1.669,0,0,0-.957.3l-23.848,16.62a1.677,1.677,0,1,0,1.917,2.751l23.848-16.62a1.677,1.677,0,0,0-.96-3.053Z" transform="translate(-340.498 -369.635)"/><path class="b" d="M303.821,193.24a1.676,1.676,0,0,0-1.436.808l-15.066,24.86a1.677,1.677,0,1,0,2.868,1.738l15.066-24.859a1.678,1.678,0,0,0-1.432-2.547Z" transform="translate(-237.08 21.75)"/><path class="b" d="M245.868,276.418a1.672,1.672,0,0,0-.775.191L219.324,290.06a1.677,1.677,0,1,0,1.552,2.973l25.769-13.451a1.677,1.677,0,0,0-.777-3.165Z" transform="translate(-206.804 -96.516)"/><path class="b" d="M199.314,371.268a1.677,1.677,0,0,0-.106,3.351l29.01,1.853a1.677,1.677,0,0,0,.214-3.347l-29.01-1.853C199.386,371.269,199.35,371.268,199.314,371.268Z" transform="translate(-197.639 -232.788)"/><path class="b" d="M232.42,449.573a1.677,1.677,0,0,0-.96,3.053l23.849,16.62a1.677,1.677,0,0,0,1.917-2.751l-23.848-16.62A1.671,1.671,0,0,0,232.42,449.573Z" transform="translate(-212.237 -369.634)"/></g></g><g transform="translate(28)"><g class="c" transform="translate(-352 -25)"><g transform="translate(1569.05 94)"><path class="b" d="M395.157,537.874H350.671a8.092,8.092,0,0,0,0,16.183h44.486a8.092,8.092,0,1,0,0-16.183Zm-44.486,12.478a4.387,4.387,0,0,1,0-8.774h44.486a4.387,4.387,0,1,1,0,8.774Z" transform="translate(-310.97 -506.195)"/><path class="b" d="M375.854,575.227a13.378,13.378,0,0,0-13.01,10.06,16.4,16.4,0,0,0-14.05,16.181v1.852h54.092v-1.852a16.4,16.4,0,0,0-14.019-16.179A13.373,13.373,0,0,0,375.854,575.227Zm-23.22,24.388a12.715,12.715,0,0,1,11.856-10.774l1.5-.087.224-1.486a9.741,9.741,0,0,1,19.279,0l.224,1.485,1.5.089a12.709,12.709,0,0,1,11.827,10.774Z" transform="translate(-313.895 -575.227)"/><path class="b" d="M374.045,248.649H315.229v21.308a258.511,258.511,0,0,1-19.115,27.895,61.16,61.16,0,0,0-13.258,38.212,61.948,61.948,0,1,0,123.9,0,61.144,61.144,0,0,0-13.264-38.221,293.365,293.365,0,0,1-19.443-28.422Zm-55.112,3.7H370.34v18.093l.264.44a297.591,297.591,0,0,0,19.974,29.25,57.476,57.476,0,0,1,12.469,35.927,58.243,58.243,0,1,1-116.487,0,57.488,57.488,0,0,1,12.463-35.918A262.243,262.243,0,0,0,318.677,271.4l.256-.436Z" transform="translate(-282.856 -197.076)"/><rect class="b" width="4.234" height="65.735" transform="matrix(0.977, 0.214, -0.214, 0.977, 52.031, 54.358)"/><rect class="b" width="67.088" height="3.704" transform="translate(71.402 53.037) rotate(77.903)"/><rect class="b" width="20.817" height="3.705" transform="translate(51.866 9.824)"/><path class="b" d="M380.092,398.135l-3.705,14.2L366.318,405.6l-1.472,2.2,13.162,8.807,2.646-10.143L387.449,423l5.6-15.981,9.917,4.534,1.1-2.406-12.554-5.74-4.26,12.154Z" transform="translate(-321.452 -301.178)"/></g></g><line class="d" y1="69" transform="translate(1278.5 0.5)"/></g><line class="e" y1="201" transform="translate(1522.5 0.5)"/><g transform="translate(-44)"><g class="f" transform="translate(119 -62)"><g transform="translate(1569.05 94)"><path class="b" d="M382.222,537.874H348.68a6.1,6.1,0,0,0,0,12.2h33.542a6.1,6.1,0,1,0,0-12.2Zm-33.542,9.409a3.308,3.308,0,0,1,0-6.615h33.542a3.308,3.308,0,1,1,0,6.615Z" transform="translate(-318.747 -513.989)"/><path class="b" d="M369.2,575.227a10.087,10.087,0,0,0-9.81,7.585,12.364,12.364,0,0,0-10.594,12.2v1.4h40.784v-1.4a12.363,12.363,0,0,0-10.57-12.2A10.083,10.083,0,0,0,369.2,575.227Zm-17.507,18.388a9.587,9.587,0,0,1,8.939-8.124l1.131-.066.169-1.12a7.345,7.345,0,0,1,14.536,0l.169,1.12,1.13.067a9.582,9.582,0,0,1,8.917,8.124Z" transform="translate(-322.48 -575.227)"/><path class="b" d="M351.611,248.649H307.265v16.066a194.91,194.91,0,0,1-14.413,21.032,46.114,46.114,0,0,0-10,28.811,46.708,46.708,0,1,0,93.416,0,46.1,46.1,0,0,0-10-28.818,221.188,221.188,0,0,1-14.66-21.43Zm-41.553,2.793h38.76v13.642l.2.332a224.378,224.378,0,0,0,15.06,22.054,43.336,43.336,0,0,1,9.4,27.088,43.915,43.915,0,1,1-87.829,0,43.345,43.345,0,0,1,9.4-27.082,197.728,197.728,0,0,0,14.819-21.671l.193-.328Z" transform="translate(-282.856 -209.764)"/><rect class="b" width="3.192" height="49.563" transform="matrix(0.977, 0.214, -0.214, 0.977, 39.231, 40.985)"/><rect class="b" width="50.584" height="2.793" transform="translate(53.836 39.989) rotate(77.903)"/><rect class="b" width="15.696" height="2.793" transform="translate(39.106 7.408)"/><path class="b" d="M376.342,398.135l-2.794,10.709-7.592-5.08-1.11,1.659,9.924,6.641,1.995-7.648,5.123,12.466,4.224-12.05,7.477,3.418.829-1.814-9.466-4.328-3.212,9.164Z" transform="translate(-332.128 -322.031)"/></g></g><line class="g" y1="32" transform="translate(1734.5 0.5)"/></g></g></svg>